<svg width="90" height="90" viewBox="0 0 90 90" fill="none" xmlns="http://www.w3.org/2000/svg">
<rect x="13" y="6.5" width="69" height="69" rx="7.5" stroke="#A774D3"/>
<g filter="url(#filter0_d_2615_8442)">
<rect x="12" y="6" width="70" height="70" rx="8" fill="white"/>
<rect x="12.5" y="6.5" width="69" height="69" rx="7.5" stroke="#A774D3"/>
</g>
<g clip-path="url(#clip0_2615_8442)">
<path d="M32.894 57.5766V55.3603C32.894 54.5106 32.3768 53.9566 31.4901 53.9566C31.0469 53.9566 30.5667 54.1044 30.2342 54.5846C29.9757 54.1782 29.6064 53.9566 29.0523 53.9566C28.6827 53.9566 28.3136 54.0673 28.0179 54.4737V54.0305H27.2422V57.5766H28.0179V55.6188C28.0179 54.991 28.3504 54.6953 28.8677 54.6953C29.3846 54.6953 29.6434 55.0278 29.6434 55.6188V57.5766H30.4191V55.6188C30.4191 54.991 30.7883 54.6953 31.2685 54.6953C31.7858 54.6953 32.0443 55.0278 32.0443 55.6188V57.5766H32.894ZM44.3819 54.0305H43.1261V52.9593H42.3504V54.0305H41.6486V54.7322H42.3502V56.3576C42.3502 57.1704 42.6827 57.6505 43.5694 57.6505C43.9019 57.6505 44.271 57.5397 44.5298 57.392L44.3081 56.727C44.0864 56.8747 43.828 56.9118 43.6432 56.9118C43.2739 56.9118 43.1261 56.6901 43.1261 56.3206V54.7322H44.3819V54.0305ZM50.9572 53.9564C50.514 53.9564 50.2185 54.1782 50.0338 54.4737V54.0305H49.258V57.5766H50.0338V55.5819C50.0338 54.991 50.2922 54.6585 50.7725 54.6585C50.9202 54.6585 51.105 54.6955 51.2527 54.7323L51.4743 53.9936C51.3266 53.9566 51.105 53.9566 50.9572 53.9566M41.0206 54.3261C40.6511 54.0675 40.134 53.9568 39.5799 53.9568C38.6934 53.9568 38.1025 54.4 38.1025 55.1019C38.1025 55.693 38.5457 56.0253 39.3214 56.1362L39.6907 56.1732C40.0971 56.2469 40.3187 56.3578 40.3187 56.5426C40.3187 56.801 40.0232 56.9858 39.506 56.9858C38.9887 56.9858 38.5825 56.801 38.3239 56.6164L37.9545 57.2074C38.3609 57.5029 38.915 57.6506 39.469 57.6506C40.5033 57.6506 41.0944 57.1706 41.0944 56.5056C41.0944 55.8776 40.6142 55.5451 39.8753 55.4344L39.506 55.3973C39.1735 55.3603 38.915 55.2866 38.915 55.065C38.915 54.8064 39.1735 54.6586 39.5799 54.6586C40.0232 54.6586 40.4665 54.8432 40.6881 54.9541L41.0206 54.3261ZM61.6327 53.9568C61.1893 53.9568 60.8938 54.1784 60.7091 54.4739V54.0307H59.9334V57.5768H60.7091V55.5821C60.7091 54.9911 60.9677 54.6586 61.4478 54.6586C61.5957 54.6586 61.7805 54.6957 61.9282 54.7325L62.1498 53.9938C62.0021 53.9568 61.7805 53.9568 61.6327 53.9568ZM51.7329 55.8037C51.7329 56.8749 52.4716 57.6506 53.6169 57.6506C54.134 57.6506 54.5033 57.5399 54.8727 57.2444L54.5033 56.6164C54.2078 56.8381 53.9124 56.9488 53.5799 56.9488C52.9519 56.9488 52.5087 56.5056 52.5087 55.8037C52.5087 55.1389 52.9519 54.6955 53.5799 54.6586C53.9124 54.6586 54.2078 54.7694 54.5033 54.9911L54.8727 54.3632C54.5033 54.0675 54.134 53.9568 53.6169 53.9568C52.4716 53.9568 51.7329 54.7325 51.7329 55.8037ZM58.8992 55.8037V54.0307H58.1235V54.4739C57.8648 54.1415 57.4955 53.9568 57.0152 53.9568C56.0179 53.9568 55.2422 54.7325 55.2422 55.8037C55.2422 56.8749 56.0179 57.6506 57.0152 57.6506C57.5323 57.6506 57.9019 57.466 58.1235 57.1335V57.5768H58.8992V55.8037ZM56.0548 55.8037C56.0548 55.1757 56.4611 54.6586 57.126 54.6586C57.7539 54.6586 58.1973 55.1389 58.1973 55.8037C58.1973 56.4317 57.7539 56.9488 57.126 56.9488C56.4611 56.9118 56.0548 56.4317 56.0548 55.8037ZM46.7831 53.9568C45.7488 53.9568 45.0099 54.6955 45.0099 55.8037C45.0099 56.9119 45.7486 57.6506 46.82 57.6506C47.3371 57.6506 47.8543 57.5029 48.2607 57.1706L47.8912 56.6164C47.5957 56.8381 47.2263 56.9858 46.857 56.9858C46.3768 56.9858 45.8965 56.7642 45.7856 56.136H48.4084V55.8407C48.4455 54.6955 47.7806 53.9568 46.7831 53.9568ZM46.783 54.6216C47.263 54.6216 47.5957 54.9173 47.6694 55.4714H45.8225C45.8963 54.9911 46.2288 54.6216 46.783 54.6216ZM66.0282 55.8037V52.627H65.2525V54.4739C64.9939 54.1415 64.6245 53.9568 64.1443 53.9568C63.147 53.9568 62.3713 54.7325 62.3713 55.8037C62.3713 56.8749 63.147 57.6506 64.1443 57.6506C64.6616 57.6506 65.0309 57.466 65.2525 57.1335V57.5768H66.0282V55.8037ZM63.184 55.8037C63.184 55.1757 63.5902 54.6586 64.2552 54.6586C64.8832 54.6586 65.3264 55.1389 65.3264 55.8037C65.3264 56.4317 64.8832 56.9488 64.2552 56.9488C63.5902 56.9118 63.184 56.4317 63.184 55.8037ZM37.2525 55.8037V54.0307H36.4768V54.4739C36.2182 54.1415 35.8488 53.9568 35.3686 53.9568C34.3712 53.9568 33.5955 54.7325 33.5955 55.8037C33.5955 56.8749 34.3712 57.6506 35.3686 57.6506C35.8858 57.6506 36.2552 57.466 36.4768 57.1335V57.5768H37.2525V55.8037ZM34.3713 55.8037C34.3713 55.1757 34.7776 54.6586 35.4425 54.6586C36.0704 54.6586 36.5138 55.1389 36.5138 55.8037C36.5138 56.4317 36.0704 56.9488 35.4425 56.9488C34.7776 56.9118 34.3713 56.4317 34.3713 55.8037Z" fill="black"/>
<path d="M40.7617 27.1016H52.3975V48.0092H40.7617V27.1016Z" fill="#FF5F00"/>
<path d="M41.5006 37.5555C41.5006 33.3075 43.4952 29.5396 46.5611 27.1016C44.308 25.3285 41.4637 24.2573 38.3608 24.2573C31.0096 24.2573 25.0625 30.2045 25.0625 37.5555C25.0625 44.9065 31.0096 50.8536 38.3606 50.8536C41.4635 50.8536 44.3078 49.7824 46.5611 48.0092C43.4952 45.6082 41.5006 41.8034 41.5006 37.5555Z" fill="#EB001B"/>
<path d="M68.0962 37.5555C68.0962 44.9063 62.1491 50.8536 54.7981 50.8536C51.6952 50.8536 48.8509 49.7824 46.5977 48.0092C49.7005 45.5713 51.6584 41.8034 51.6584 37.5555C51.6584 33.3075 49.6635 29.5396 46.5977 27.1016C48.8508 25.3285 51.6952 24.2573 54.7981 24.2573C62.1491 24.2573 68.0962 30.2415 68.0962 37.5555Z" fill="#F79E1B"/>
</g>
<defs>
<filter id="filter0_d_2615_8442" x="0" y="0" width="90" height="90" filterUnits="userSpaceOnUse" color-interpolation-filters="sRGB">
<feFlood flood-opacity="0" result="BackgroundImageFix"/>
<feColorMatrix in="SourceAlpha" type="matrix" values="0 0 0 0 0 0 0 0 0 0 0 0 0 0 0 0 0 0 127 0" result="hardAlpha"/>
<feOffset dx="-2" dy="4"/>
<feGaussianBlur stdDeviation="5"/>
<feComposite in2="hardAlpha" operator="out"/>
<feColorMatrix type="matrix" values="0 0 0 0 0 0 0 0 0 0 0 0 0 0 0 0 0 0 0.25 0"/>
<feBlend mode="normal" in2="BackgroundImageFix" result="effect1_dropShadow_2615_8442"/>
<feBlend mode="normal" in="SourceGraphic" in2="effect1_dropShadow_2615_8442" result="shape"/>
</filter>
<clipPath id="clip0_2615_8442">
<rect width="43.0769" height="33.4856" fill="white" transform="translate(25.0625 24.2573)"/>
</clipPath>
</defs>
</svg>
