<svg width="98" height="98" viewBox="0 0 98 98" fill="none" xmlns="http://www.w3.org/2000/svg">
<path d="M91.5353 38.1049C89.904 36.4001 88.2165 34.6434 87.5805 33.0987C86.992 31.6838 86.9574 29.3386 86.9228 27.0669C86.8579 22.8439 86.7886 18.0583 83.4612 14.7309C80.1338 11.4035 75.3483 11.3342 71.1252 11.2693C68.8535 11.2347 66.5083 11.2001 65.0934 10.6116C63.5531 9.97559 61.792 8.28809 60.0872 6.65684C57.1016 3.78809 53.7093 0.538574 49.192 0.538574C44.6747 0.538574 41.2867 3.78809 38.2968 6.65684C36.592 8.28809 34.8353 9.97559 33.2906 10.6116C31.8843 11.2001 29.5305 11.2347 27.2588 11.2693C23.0358 11.3342 18.2502 11.4035 14.9228 14.7309C11.5954 18.0583 11.5478 22.8439 11.4612 27.0669C11.4266 29.3386 11.392 31.6838 10.8035 33.0987C10.1675 34.6391 8.47999 36.4001 6.84874 38.1049C3.97999 41.0905 0.730469 44.4828 0.730469 49.0001C0.730469 53.5174 3.97999 56.9054 6.84874 59.8953C8.47999 61.6001 10.1675 63.3568 10.8035 64.9015C11.392 66.3165 11.4266 68.6616 11.4612 70.9333C11.5261 75.1564 11.5954 79.9419 14.9228 83.2693C18.2502 86.5967 23.0358 86.666 27.2588 86.7309C29.5305 86.7655 31.8757 86.8001 33.2906 87.3886C34.8309 88.0246 36.592 89.7121 38.2968 91.3434C41.2824 94.2121 44.6747 97.4616 49.192 97.4616C53.7093 97.4616 57.0973 94.2121 60.0872 91.3434C61.792 89.7121 63.5487 88.0246 65.0934 87.3886C66.5083 86.8001 68.8535 86.7655 71.1252 86.7309C75.3483 86.666 80.1338 86.5967 83.4612 83.2693C86.7886 79.9419 86.8579 75.1564 86.9228 70.9333C86.9574 68.6616 86.992 66.3165 87.5805 64.9015C88.2165 63.3612 89.904 61.6001 91.5353 59.8953C94.404 56.9097 97.6535 53.5174 97.6535 49.0001C97.6535 44.4828 94.404 41.0948 91.5353 38.1049ZM68.9487 41.0645L44.718 65.2953C44.3965 65.6171 44.0147 65.8725 43.5945 66.0467C43.1743 66.2209 42.7238 66.3105 42.2689 66.3105C41.814 66.3105 41.3636 66.2209 40.9434 66.0467C40.5231 65.8725 40.1414 65.6171 39.8199 65.2953L29.4353 54.9107C29.1137 54.5891 28.8585 54.2073 28.6845 53.7871C28.5104 53.3668 28.4208 52.9165 28.4208 52.4616C28.4208 52.0068 28.5104 51.5564 28.6845 51.1362C28.8585 50.716 29.1137 50.3342 29.4353 50.0126C30.0848 49.3631 30.9657 48.9982 31.8843 48.9982C32.3391 48.9982 32.7895 49.0878 33.2097 49.2618C33.6299 49.4359 34.0117 49.691 34.3334 50.0126L42.2689 57.9525L64.0507 36.1665C64.3723 35.8448 64.7541 35.5897 65.1743 35.4157C65.5945 35.2416 66.0449 35.152 66.4997 35.152C66.9545 35.152 67.4049 35.2416 67.8251 35.4157C68.2453 35.5897 68.6271 35.8448 68.9487 36.1665C69.2703 36.4881 69.5255 36.8699 69.6995 37.2901C69.8736 37.7103 69.9632 38.1607 69.9632 38.6155C69.9632 39.0703 69.8736 39.5207 69.6995 39.9409C69.5255 40.3611 69.2703 40.7429 68.9487 41.0645Z" fill="#1A982F"/>
</svg>
